  <svg
    width="1294"
    height="420"
    viewBox="0 0 1294 420"
    fill="none"
    xmlns="http://www.w3.org/2000/svg"
  >
    <path
      d="M1101.91 240.765V105.023H861.503C821.164 105.023 788.253 137.324 787.497 177.656C786.741 217.988 753.83 250.288 713.491 250.288H551.657C524.049 250.288 501.668 272.669 501.668 300.277C501.668 327.886 479.287 350.267 451.678 350.267H286.953C267.724 350.267 252.135 365.856 252.135 385.085C252.135 404.315 267.724 419.904 286.953 419.904H1054.7C1080.77 419.904 1101.91 398.77 1101.91 372.7V240.765Z"
      fill="#EEF3FF"
    />
    <path
      d="M959.438 268.626L1064.99 221.861V141.691L1170.55 199.146V419.612H959.438V268.626Z"
      fill="#CFDDFF"
    />
    <path
      d="M1065.86 221.68L914.866 288.095"
      stroke="#EEF3FF"
      stroke-width="1.53671"
    />
    <path
      d="M1034.26 419.608V373.512C1034.26 365.025 1027.38 358.145 1018.89 358.145H986.156V419.608"
      stroke="#93AFF3"
      stroke-width="1.53671"
    />
    <path
      d="M1066.34 221.861V419.612"
      stroke="#93AFF3"
      stroke-width="1.53671"
    />
    <path
      d="M1093.83 356.052H1125.8C1133.86 356.052 1140.4 362.588 1140.4 370.65V375.893H1093.83V356.052Z"
      stroke="#93AFF3"
      stroke-width="1.53671"
    />
    <path
      d="M1093.83 308.538H1125.8C1133.86 308.538 1140.4 315.074 1140.4 323.137V328.38H1093.83V308.538Z"
      stroke="#93AFF3"
      stroke-width="1.53671"
    />
    <path
      d="M1093.83 261.02H1125.8C1133.86 261.02 1140.4 267.556 1140.4 275.619V280.862H1093.83V261.02Z"
      stroke="#93AFF3"
      stroke-width="1.53671"
    />
    <path
      d="M1093.83 213.505H1125.8C1133.86 213.505 1140.4 220.041 1140.4 228.103V233.346H1093.83V213.505Z"
      stroke="#93AFF3"
      stroke-width="1.53671"
    />
    <path
      d="M1064.79 141.553L1206.7 218.651"
      stroke="#CFDDFF"
      stroke-width="1.53671"
    />
    <rect
      x="925.185"
      y="64.0312"
      width="114.428"
      height="42.6466"
      fill="#EDF1FF"
    />
    <path
      d="M966.76 88.4783C966.76 82.3274 971.746 77.3411 977.897 77.3411H986.496V91.9517H966.76V88.4783Z"
      stroke="#93AFF3"
      stroke-width="0.768085"
    />
    <path
      d="M956.122 106.433V76.957H948.425C944.182 76.957 940.744 80.3959 940.744 84.6379V106.433"
      stroke="#93AFF3"
      stroke-width="0.768085"
    />
    <path
      d="M998.795 88.4783C998.795 82.3274 1003.78 77.3411 1009.93 77.3411H1039.04V91.9517H998.795V88.4783Z"
      stroke="#93AFF3"
      stroke-width="0.768085"
    />
    <rect
      x="909.99"
      y="23.1309"
      width="76.8937"
      height="41.0098"
      fill="#EDF1FF"
    />
    <path
      d="M910.374 35.052H933.083C945.597 35.052 955.742 45.1966 955.742 57.7105V63.7598H910.374V35.052Z"
      stroke="#93AFF3"
      stroke-width="0.768085"
    />
    <rect
      x="986.881"
      y="63.4727"
      width="61.5171"
      height="0.738981"
      fill="#CFDDFF"
    />
    <rect
      x="899.736"
      y="22.4609"
      width="97.3987"
      height="0.738981"
      fill="#CFDDFF"
    />
    <circle cx="978.272" cy="89.0225" r="1.30175" fill="#93AFF3" />
    <path
      fill-rule="evenodd"
      clip-rule="evenodd"
      d="M332.883 404.401H349.188C349.295 404.079 349.416 403.761 349.552 403.446L350.066 402.26C351.398 399.182 351.256 395.666 349.681 392.705L349.032 391.484C347.878 389.314 347.767 386.739 348.731 384.478L349.037 383.76C350.074 381.327 349.626 378.515 347.885 376.525L347.792 376.419C346.305 374.719 345.785 372.378 346.414 370.209L346.924 368.449C347.711 365.733 346.045 362.915 343.285 362.296C340.363 361.641 337.541 363.733 337.319 366.719L336.962 371.502L334.178 378.327C333.206 380.711 333.422 383.414 334.76 385.613C336.14 387.88 336.324 390.678 335.254 393.106L333.592 396.875C332.543 399.256 332.304 401.898 332.883 404.401Z"
      fill="#CFDDFF"
    />
    <path
      fill-rule="evenodd"
      clip-rule="evenodd"
      d="M317.415 404.401H338.688C338.834 403.953 339.002 403.509 339.193 403.072L339.861 401.54C341.602 397.546 341.417 392.974 339.359 389.134L338.51 387.548C337.002 384.734 336.857 381.387 338.117 378.454L338.512 377.534C339.869 374.372 339.285 370.712 337.01 368.13L336.887 367.991C334.945 365.788 334.267 362.743 335.09 359.923L335.736 357.71C336.774 354.155 334.592 350.462 330.977 349.657C327.163 348.808 323.484 351.538 323.192 355.434L322.728 361.611L319.089 370.466C317.818 373.561 318.1 377.076 319.849 379.928C321.651 382.868 321.892 386.507 320.492 389.659L318.321 394.548C316.938 397.663 316.632 401.127 317.415 404.401Z"
      fill="#19243D"
    />
    <path
      d="M329.398 404.312L329.346 349.455"
      stroke="white"
      stroke-width="1.04898"
    />
    <path
      fill-rule="evenodd"
      clip-rule="evenodd"
      d="M345.652 403.699H362.598C362.707 403.376 362.831 403.056 362.971 402.741L363.496 401.552C364.878 398.423 364.732 394.831 363.1 391.825L362.424 390.58C361.229 388.379 361.114 385.75 362.113 383.454L362.42 382.75C363.5 380.267 363.036 377.383 361.233 375.363L361.134 375.252C359.595 373.529 359.058 371.133 359.713 368.919L360.197 367.284C361.033 364.456 359.295 361.513 356.415 360.88C353.397 360.217 350.492 362.377 350.257 365.457L349.893 370.255L347.006 377.188C345.996 379.614 346.219 382.378 347.606 384.61C349.035 386.911 349.226 389.772 348.114 392.242L346.392 396.07C345.308 398.478 345.059 401.16 345.652 403.699Z"
      fill="#19243D"
    />
    <path
      d="M354.922 403.632L354.87 360.73"
      stroke="white"
      stroke-width="1.04898"
    />
    <path
      d="M342.165 404.333L342.113 362.135"
      stroke="white"
      stroke-width="1.04898"
    />
    <path
      fill-rule="evenodd"
      clip-rule="evenodd"
      d="M316.316 419.905H364.13L367.995 402.996H311.973L316.316 419.905Z"
      fill="#CFDDFF"
    />
    <path
      fill-rule="evenodd"
      clip-rule="evenodd"
      d="M95.0677 130.929L97.9209 102.983L97.9383 124.189L95.0677 130.929Z"
      fill="#D9E1FF"
    />
    <path
      fill-rule="evenodd"
      clip-rule="evenodd"
      d="M99.1985 124.041L95.0628 130.925L97.2562 124.016L98.0121 103.692L99.1985 124.041Z"
      fill="white"
    />
    <path
      fill-rule="evenodd"
      clip-rule="evenodd"
      d="M109.277 129.668L98.1435 101.598L84.9382 125.349L97.2576 124.013L98.0718 105.01L99.2 124.037L109.277 129.668Z"
      fill="#CFDDFF"
    />
    <path
      fill-rule="evenodd"
      clip-rule="evenodd"
      d="M247.734 157.88C247.294 157.376 246.528 157.324 246.024 157.764C245.52 158.204 245.468 158.97 245.908 159.474C245.995 159.574 246.082 159.674 246.169 159.774C246.607 160.28 247.373 160.335 247.879 159.897C248.384 159.458 248.439 158.693 248.001 158.187C247.912 158.085 247.823 157.982 247.734 157.88ZM242.429 153.928C242.912 153.464 243.68 153.48 244.143 153.963C244.237 154.061 244.33 154.159 244.423 154.256C244.885 154.741 244.867 155.508 244.382 155.97C243.897 156.432 243.13 156.413 242.668 155.929C242.577 155.833 242.486 155.737 242.394 155.642C241.931 155.159 241.946 154.391 242.429 153.928ZM240.394 150.221C239.91 149.758 239.143 149.775 238.68 150.259C238.217 150.743 238.235 151.51 238.718 151.973C238.814 152.064 238.91 152.156 239.006 152.248C239.488 152.712 240.255 152.698 240.719 152.215C241.184 151.733 241.169 150.966 240.687 150.502C240.589 150.408 240.492 150.314 240.394 150.221ZM234.786 146.748C235.229 146.247 235.995 146.2 236.496 146.643C236.599 146.733 236.701 146.824 236.803 146.914C237.303 147.359 237.348 148.125 236.904 148.625C236.459 149.126 235.693 149.171 235.192 148.726C235.092 148.637 234.992 148.548 234.891 148.459C234.39 148.016 234.343 147.25 234.786 146.748ZM232.458 143.197C231.941 142.773 231.177 142.848 230.752 143.365C230.327 143.882 230.402 144.646 230.92 145.071C231.024 145.156 231.127 145.241 231.231 145.327C231.747 145.753 232.511 145.68 232.937 145.164C233.363 144.648 233.29 143.884 232.774 143.458C232.669 143.371 232.564 143.284 232.458 143.197ZM226.609 140.132C227.017 139.601 227.777 139.501 228.309 139.908C228.416 139.99 228.523 140.073 228.63 140.155C229.16 140.564 229.258 141.325 228.85 141.855C228.441 142.385 227.68 142.484 227.15 142.075C227.045 141.994 226.939 141.912 226.833 141.831C226.302 141.424 226.202 140.663 226.609 140.132ZM224.063 136.757C223.52 136.366 222.762 136.489 222.371 137.032C221.98 137.575 222.103 138.333 222.647 138.724C222.755 138.802 222.864 138.88 222.972 138.959C223.514 139.351 224.272 139.229 224.664 138.687C225.057 138.145 224.935 137.387 224.393 136.995C224.283 136.915 224.173 136.836 224.063 136.757ZM219.733 133.728C219.179 133.352 218.425 133.497 218.05 134.051C217.674 134.605 217.818 135.359 218.372 135.734L218.54 135.848L218.703 135.959C219.256 136.336 220.01 136.193 220.387 135.64C220.764 135.087 220.621 134.333 220.068 133.956C219.956 133.88 219.845 133.804 219.733 133.728ZM249.422 161.767C249.948 161.353 250.71 161.444 251.123 161.97C251.208 162.077 251.292 162.184 251.375 162.291C251.787 162.819 251.693 163.581 251.165 163.993C250.638 164.404 249.876 164.31 249.464 163.782C249.383 163.678 249.301 163.573 249.218 163.469C248.805 162.942 248.895 162.181 249.422 161.767ZM254.302 166.242C253.918 165.693 253.162 165.56 252.614 165.944C252.066 166.328 251.933 167.084 252.317 167.632C252.393 167.741 252.469 167.851 252.545 167.96C252.927 168.51 253.682 168.647 254.232 168.265C254.782 167.883 254.918 167.128 254.537 166.578C254.459 166.466 254.381 166.354 254.302 166.242ZM255.553 170.291C256.123 169.94 256.87 170.118 257.22 170.689C257.292 170.806 257.364 170.922 257.435 171.039C257.782 171.611 257.601 172.357 257.029 172.705C256.457 173.052 255.711 172.871 255.363 172.299C255.294 172.185 255.225 172.071 255.155 171.958C254.805 171.388 254.983 170.641 255.553 170.291ZM259.872 175.316C259.559 174.724 258.825 174.499 258.234 174.812C257.642 175.125 257.416 175.858 257.729 176.45C257.791 176.567 257.853 176.684 257.914 176.802C258.224 177.395 258.957 177.624 259.55 177.314C260.143 177.004 260.373 176.272 260.063 175.679C259.999 175.558 259.936 175.437 259.872 175.316ZM260.603 179.498C261.214 179.227 261.93 179.502 262.202 180.114C262.258 180.239 262.313 180.364 262.368 180.489C262.636 181.102 262.357 181.817 261.744 182.085C261.131 182.354 260.416 182.074 260.147 181.461C260.094 181.34 260.041 181.219 259.987 181.098C259.715 180.487 259.991 179.77 260.603 179.498ZM264.201 185.078C263.974 184.449 263.28 184.123 262.65 184.35C262.02 184.577 261.694 185.272 261.921 185.901C261.966 186.025 262.011 186.15 262.055 186.274C262.278 186.905 262.971 187.235 263.602 187.011C264.233 186.788 264.563 186.095 264.339 185.464C264.294 185.335 264.248 185.207 264.201 185.078ZM264.333 189.329C264.978 189.149 265.646 189.526 265.826 190.171C265.863 190.303 265.9 190.436 265.936 190.568C266.112 191.214 265.731 191.88 265.085 192.056C264.439 192.232 263.773 191.851 263.597 191.205C263.562 191.077 263.527 190.949 263.491 190.821C263.311 190.177 263.689 189.508 264.333 189.329ZM267.066 195.366C266.936 194.71 266.298 194.283 265.641 194.414C264.985 194.544 264.558 195.182 264.689 195.839C264.714 195.968 264.74 196.098 264.765 196.227C264.891 196.884 265.527 197.315 266.184 197.188C266.841 197.062 267.272 196.426 267.145 195.769C267.119 195.635 267.093 195.501 267.066 195.366ZM266.564 199.6C267.228 199.52 267.832 199.994 267.912 200.658C267.928 200.794 267.945 200.931 267.96 201.067C268.036 201.732 267.559 202.333 266.894 202.409C266.229 202.485 265.628 202.008 265.552 201.343C265.537 201.211 265.521 201.08 265.505 200.948C265.425 200.284 265.899 199.68 266.564 199.6ZM268.349 205.984C268.318 205.315 267.752 204.798 267.083 204.828C266.414 204.858 265.897 205.425 265.927 206.093C265.933 206.225 265.939 206.358 265.944 206.49C265.97 207.158 266.534 207.679 267.203 207.653C267.872 207.626 268.392 207.063 268.366 206.394C268.361 206.257 268.355 206.121 268.349 205.984ZM267.219 210.09C267.888 210.108 268.415 210.665 268.397 211.335C268.393 211.471 268.389 211.608 268.385 211.745C268.363 212.415 267.803 212.939 267.134 212.917C266.465 212.895 265.94 212.335 265.962 211.666C265.966 211.533 265.97 211.401 265.974 211.268C265.992 210.599 266.549 210.072 267.219 210.09ZM268.068 216.618C268.132 215.951 267.643 215.359 266.977 215.295C266.311 215.231 265.719 215.719 265.655 216.386C265.642 216.518 265.629 216.65 265.616 216.782C265.548 217.448 266.033 218.042 266.699 218.11C267.365 218.177 267.96 217.692 268.027 217.026C268.041 216.89 268.054 216.754 268.068 216.618ZM266.376 220.518C267.037 220.625 267.486 221.248 267.378 221.908C267.356 222.043 267.334 222.178 267.312 222.313C267.201 222.973 266.576 223.418 265.916 223.308C265.256 223.197 264.81 222.573 264.921 221.913C264.943 221.782 264.964 221.651 264.986 221.52C265.093 220.859 265.715 220.411 266.376 220.518ZM266.363 227.141C266.51 226.488 266.1 225.84 265.448 225.692C264.795 225.545 264.146 225.955 263.999 226.608C263.969 226.737 263.94 226.867 263.91 226.996C263.76 227.649 264.167 228.299 264.819 228.449C265.471 228.599 266.122 228.192 266.272 227.54C266.303 227.407 266.333 227.274 266.363 227.141ZM264.214 230.798C264.858 230.981 265.231 231.652 265.047 232.296C265.01 232.427 264.972 232.558 264.934 232.689C264.747 233.332 264.075 233.702 263.432 233.515C262.789 233.329 262.419 232.656 262.606 232.014C262.643 231.886 262.68 231.758 262.716 231.63C262.9 230.987 263.571 230.614 264.214 230.798ZM263.461 237.38C263.678 236.747 263.34 236.058 262.707 235.841C262.074 235.624 261.385 235.962 261.168 236.595C261.125 236.721 261.081 236.846 261.038 236.972C260.819 237.604 261.154 238.295 261.786 238.514C262.419 238.733 263.109 238.398 263.328 237.766C263.373 237.637 263.417 237.509 263.461 237.38ZM260.933 240.777C261.555 241.026 261.856 241.732 261.607 242.353C261.557 242.479 261.506 242.604 261.455 242.729C261.204 243.35 260.497 243.648 259.877 243.397C259.256 243.145 258.957 242.438 259.209 241.818C259.259 241.696 259.308 241.574 259.357 241.451C259.606 240.83 260.312 240.528 260.933 240.777ZM259.495 247.227C259.778 246.621 259.515 245.9 258.908 245.617C258.302 245.334 257.581 245.597 257.298 246.204C257.241 246.325 257.185 246.447 257.128 246.568C256.842 247.173 257.102 247.895 257.708 248.181C258.313 248.466 259.035 248.206 259.321 247.601C259.379 247.476 259.437 247.352 259.495 247.227ZM256.614 250.348C257.203 250.665 257.424 251.4 257.107 251.99C257.043 252.109 256.978 252.228 256.914 252.347C256.594 252.935 255.858 253.153 255.27 252.833C254.682 252.513 254.464 251.777 254.784 251.189C254.847 251.073 254.91 250.957 254.972 250.841C255.29 250.252 256.025 250.031 256.614 250.348ZM254.443 256.613C254.795 256.044 254.619 255.297 254.05 254.945C253.481 254.592 252.734 254.768 252.382 255.337C252.312 255.45 252.242 255.562 252.172 255.674C251.817 256.241 251.989 256.989 252.556 257.344C253.124 257.7 253.871 257.528 254.227 256.96C254.299 256.845 254.371 256.729 254.443 256.613ZM251.205 259.35C251.75 259.738 251.878 260.495 251.49 261.041C251.411 261.152 251.332 261.263 251.252 261.373C250.862 261.917 250.104 262.041 249.561 261.65C249.017 261.26 248.893 260.502 249.284 259.959C249.361 259.851 249.438 259.744 249.515 259.636C249.903 259.09 250.659 258.963 251.205 259.35ZM248.261 265.282C248.684 264.764 248.607 264 248.089 263.577C247.57 263.154 246.807 263.231 246.383 263.75C246.3 263.852 246.216 263.954 246.133 264.055C245.707 264.572 245.78 265.335 246.296 265.761C246.813 266.187 247.577 266.114 248.003 265.598C248.089 265.493 248.175 265.388 248.261 265.282ZM244.688 267.592C245.176 268.05 245.201 268.817 244.743 269.305C244.649 269.406 244.554 269.505 244.46 269.605C243.999 270.091 243.232 270.111 242.747 269.651C242.261 269.19 242.24 268.423 242.701 267.937C242.792 267.841 242.884 267.744 242.975 267.647C243.433 267.159 244.2 267.134 244.688 267.592ZM240.95 273.077C241.441 272.622 241.471 271.856 241.016 271.364C240.561 270.873 239.794 270.843 239.303 271.298C239.207 271.387 239.11 271.476 239.013 271.565C238.519 272.017 238.485 272.784 238.937 273.277C239.389 273.771 240.156 273.805 240.65 273.353C240.75 273.261 240.85 273.169 240.95 273.077ZM237.107 274.843C237.525 275.366 237.44 276.128 236.918 276.547C236.811 276.632 236.705 276.716 236.598 276.801C236.073 277.216 235.311 277.127 234.896 276.602C234.48 276.077 234.569 275.315 235.094 274.9C235.197 274.818 235.3 274.736 235.403 274.654C235.926 274.236 236.689 274.32 237.107 274.843ZM232.625 279.73C233.177 279.351 233.317 278.596 232.938 278.044C232.559 277.493 231.804 277.353 231.253 277.732C231.143 277.807 231.033 277.882 230.923 277.957C230.369 278.333 230.224 279.087 230.6 279.64C230.976 280.194 231.73 280.339 232.284 279.963C232.398 279.885 232.512 279.808 232.625 279.73ZM228.554 280.936C228.891 281.514 228.696 282.256 228.118 282.594C228 282.663 227.882 282.732 227.763 282.8C227.183 283.134 226.442 282.935 226.108 282.356C225.774 281.776 225.973 281.035 226.552 280.7C226.667 280.634 226.782 280.568 226.896 280.501C227.474 280.163 228.216 280.358 228.554 280.936ZM223.404 285.12C224.005 284.825 224.254 284.099 223.959 283.498C223.665 282.897 222.939 282.648 222.338 282.943C222.219 283.001 222.099 283.059 221.98 283.117C221.377 283.408 221.125 284.133 221.416 284.735C221.707 285.338 222.432 285.591 223.034 285.3C223.158 285.24 223.281 285.18 223.404 285.12ZM219.194 285.72C219.445 286.341 219.144 287.047 218.524 287.298C218.397 287.349 218.27 287.399 218.143 287.45C217.521 287.697 216.816 287.393 216.569 286.771C216.322 286.148 216.627 285.444 217.249 285.197C217.372 285.148 217.494 285.099 217.617 285.05C218.238 284.799 218.944 285.099 219.194 285.72ZM213.491 289.116C214.128 288.911 214.478 288.228 214.272 287.591C214.067 286.954 213.384 286.604 212.747 286.809C212.621 286.85 212.494 286.891 212.368 286.931C211.73 287.133 211.376 287.814 211.578 288.452C211.78 289.09 212.462 289.444 213.1 289.241C213.23 289.2 213.361 289.158 213.491 289.116ZM209.241 289.116C209.402 289.766 209.005 290.423 208.356 290.584C208.223 290.616 208.091 290.649 207.958 290.681C207.308 290.838 206.653 290.438 206.495 289.788C206.338 289.137 206.738 288.482 207.389 288.325C207.517 288.294 207.645 288.262 207.773 288.231C208.423 288.07 209.08 288.466 209.241 289.116ZM203.138 291.688C203.797 291.571 204.237 290.943 204.12 290.283C204.004 289.624 203.375 289.184 202.716 289.301C202.585 289.324 202.454 289.347 202.322 289.369C201.663 289.482 201.219 290.109 201.332 290.768C201.445 291.428 202.072 291.871 202.732 291.758C202.867 291.735 203.002 291.712 203.138 291.688ZM198.946 291.104C199.019 291.769 198.539 292.368 197.873 292.441C197.737 292.456 197.601 292.47 197.465 292.485C196.799 292.554 196.203 292.071 196.134 291.405C196.064 290.739 196.547 290.143 197.213 290.074C197.345 290.06 197.477 290.046 197.609 290.031C198.275 289.958 198.873 290.439 198.946 291.104ZM192.571 292.852C193.24 292.821 193.757 292.254 193.727 291.586C193.697 290.917 193.13 290.4 192.461 290.43C192.329 290.436 192.197 290.442 192.065 290.447C191.396 290.474 190.876 291.039 190.903 291.707C190.93 292.376 191.494 292.896 192.163 292.869C192.299 292.864 192.435 292.858 192.571 292.852ZM188.485 291.732C188.474 292.401 187.923 292.935 187.253 292.924C187.174 292.923 187.094 292.921 187.014 292.92L186.843 292.916C186.174 292.902 185.643 292.348 185.657 291.679C185.671 291.01 186.225 290.479 186.894 290.493C187.027 290.496 187.16 290.498 187.293 290.5C187.963 290.511 188.496 291.063 188.485 291.732ZM181.926 292.675C182.593 292.726 183.176 292.226 183.227 291.559C183.278 290.891 182.778 290.309 182.111 290.258C181.978 290.248 181.845 290.237 181.712 290.226C181.045 290.172 180.461 290.669 180.406 291.336C180.352 292.004 180.849 292.588 181.517 292.642C181.653 292.653 181.79 292.664 181.926 292.675ZM177.992 291.073C177.903 291.737 177.292 292.202 176.629 292.112C176.493 292.093 176.358 292.075 176.223 292.056C175.56 291.963 175.097 291.351 175.19 290.688C175.283 290.025 175.895 289.563 176.558 289.655C176.69 289.674 176.822 289.692 176.954 289.71C177.617 289.799 178.082 290.41 177.992 291.073ZM171.37 291.252C172.027 291.379 172.663 290.949 172.79 290.292C172.917 289.634 172.487 288.999 171.83 288.872C171.699 288.846 171.568 288.821 171.437 288.795C170.781 288.665 170.143 289.092 170.013 289.749C169.884 290.406 170.311 291.043 170.967 291.173C171.102 291.2 171.236 291.226 171.37 291.252ZM167.647 289.218C167.485 289.867 166.827 290.261 166.177 290.099C166.045 290.066 165.913 290.032 165.782 289.999C165.133 289.833 164.741 289.174 164.906 288.525C165.072 287.876 165.732 287.485 166.38 287.65C166.509 287.683 166.638 287.715 166.766 287.747C167.416 287.91 167.81 288.568 167.647 289.218ZM161.059 288.673C161.698 288.87 162.377 288.511 162.574 287.871C162.77 287.231 162.411 286.553 161.772 286.356C161.644 286.317 161.517 286.278 161.39 286.238C160.751 286.038 160.071 286.395 159.872 287.034C159.672 287.673 160.028 288.352 160.667 288.552C160.798 288.592 160.928 288.633 161.059 288.673ZM157.57 286.248C157.341 286.877 156.645 287.2 156.016 286.971C155.888 286.924 155.76 286.877 155.633 286.83C155.005 286.598 154.684 285.9 154.916 285.273C155.148 284.645 155.845 284.324 156.473 284.556C156.598 284.602 156.723 284.648 156.848 284.694C157.477 284.924 157.8 285.62 157.57 286.248ZM151.061 285.024C151.678 285.285 152.389 284.997 152.65 284.381C152.911 283.764 152.623 283.053 152.007 282.792L151.887 282.741C151.804 282.706 151.722 282.671 151.639 282.636C151.024 282.372 150.311 282.657 150.048 283.273C149.784 283.888 150.07 284.601 150.685 284.864C150.81 284.918 150.936 284.971 151.061 285.024ZM147.843 282.265C147.552 282.868 146.827 283.12 146.224 282.829L146.042 282.741L145.857 282.651C145.255 282.358 145.005 281.632 145.298 281.031C145.591 280.429 146.317 280.179 146.919 280.472C147.038 280.531 147.158 280.589 147.278 280.647C147.881 280.938 148.134 281.662 147.843 282.265ZM141.487 280.399C142.075 280.718 142.811 280.5 143.131 279.912C143.45 279.324 143.232 278.588 142.644 278.269C142.527 278.205 142.41 278.141 142.293 278.077C141.707 277.756 140.97 277.971 140.648 278.557C140.326 279.144 140.541 279.881 141.128 280.203C141.248 280.268 141.367 280.334 141.487 280.399ZM138.547 277.343C138.201 277.916 137.455 278.099 136.883 277.752L136.682 277.63L136.534 277.539C135.963 277.19 135.783 276.445 136.132 275.873C136.48 275.302 137.226 275.122 137.798 275.471L137.977 275.58L138.139 275.679C138.712 276.026 138.894 276.771 138.547 277.343ZM132.405 274.882C132.959 275.257 133.713 275.113 134.089 274.558C134.464 274.004 134.319 273.251 133.765 272.875C133.655 272.8 133.544 272.725 133.434 272.65C132.882 272.272 132.128 272.414 131.75 272.966C131.372 273.519 131.514 274.273 132.066 274.651L132.168 274.72C132.247 274.774 132.326 274.828 132.405 274.882ZM129.779 271.559C129.375 272.093 128.614 272.198 128.081 271.794C127.972 271.711 127.863 271.628 127.754 271.545C127.222 271.139 127.12 270.378 127.526 269.846C127.932 269.314 128.693 269.212 129.225 269.618C129.331 269.7 129.437 269.78 129.544 269.861C130.078 270.265 130.183 271.025 129.779 271.559ZM123.937 268.477C124.448 268.908 125.213 268.843 125.644 268.332C126.076 267.82 126.011 267.056 125.5 266.624C125.398 266.538 125.296 266.452 125.194 266.365C124.684 265.931 123.919 265.993 123.486 266.503C123.052 267.013 123.114 267.778 123.623 268.211C123.728 268.3 123.832 268.388 123.937 268.477ZM121.676 264.881C121.218 265.369 120.451 265.393 119.963 264.935L119.821 264.801L119.665 264.654C119.179 264.194 119.158 263.427 119.618 262.94C120.078 262.454 120.845 262.433 121.331 262.893C121.428 262.985 121.525 263.076 121.622 263.167C122.11 263.626 122.134 264.393 121.676 264.881ZM116.192 261.2C116.655 261.683 117.422 261.7 117.905 261.236C118.389 260.773 118.405 260.006 117.942 259.523C117.851 259.427 117.759 259.331 117.668 259.235C117.207 258.75 116.44 258.73 115.954 259.191C115.469 259.653 115.45 260.42 115.911 260.905C116.004 261.003 116.098 261.102 116.192 261.2ZM114.317 257.385C113.81 257.822 113.045 257.765 112.608 257.258C112.518 257.154 112.429 257.049 112.339 256.945C111.904 256.436 111.964 255.671 112.473 255.236C112.982 254.801 113.747 254.861 114.182 255.37C114.269 255.472 114.357 255.574 114.444 255.676C114.881 256.183 114.824 256.948 114.317 257.385ZM109.241 253.144C109.651 253.673 110.412 253.77 110.941 253.361C111.47 252.951 111.567 252.19 111.158 251.66C111.076 251.555 110.995 251.45 110.914 251.344C110.506 250.813 109.746 250.713 109.215 251.121C108.684 251.529 108.584 252.289 108.991 252.82C109.074 252.928 109.157 253.036 109.241 253.144ZM107.79 249.158C107.24 249.54 106.485 249.404 106.103 248.854C106.025 248.742 105.947 248.629 105.869 248.516C105.489 247.965 105.629 247.21 106.18 246.83C106.731 246.451 107.486 246.59 107.865 247.141L108 247.335L108.094 247.472C108.476 248.021 108.34 248.776 107.79 249.158ZM103.17 244.4C103.523 244.968 104.271 245.143 104.839 244.789C105.408 244.436 105.582 243.688 105.229 243.12C105.159 243.008 105.089 242.896 105.02 242.783C104.669 242.213 103.922 242.036 103.352 242.387C102.782 242.739 102.605 243.485 102.957 244.055C103.027 244.17 103.099 244.285 103.17 244.4ZM102.132 240.306C101.547 240.63 100.809 240.419 100.484 239.834L100.424 239.724C100.378 239.643 100.333 239.561 100.288 239.479C99.9656 238.892 100.18 238.155 100.766 237.833C101.353 237.51 102.09 237.724 102.412 238.311C102.476 238.427 102.54 238.542 102.604 238.658C102.929 239.243 102.717 239.981 102.132 240.306ZM98.0313 235.133C98.3271 235.733 99.0537 235.98 99.6541 235.685C100.255 235.389 100.502 234.662 100.206 234.062C100.147 233.942 100.088 233.822 100.029 233.702C99.7356 233.1 99.01 232.85 98.4084 233.144C97.8069 233.437 97.5572 234.163 97.8507 234.765C97.9107 234.888 97.9709 235.01 98.0313 235.133ZM97.3883 230.932C96.7744 231.199 96.0605 230.917 95.7938 230.303L95.7255 230.146L95.6323 229.93C95.3678 229.315 95.6518 228.602 96.2666 228.338C96.8815 228.073 97.5944 228.357 97.8589 228.972C97.9114 229.094 97.964 229.216 98.0169 229.337C98.2836 229.951 98.0022 230.665 97.3883 230.932ZM93.7931 225.387C94.031 226.012 94.731 226.327 95.3567 226.089C95.9823 225.851 96.2967 225.151 96.0588 224.525L95.9809 224.32L95.9178 224.152C95.682 223.526 94.9831 223.209 94.3566 223.445C93.7301 223.68 93.4133 224.379 93.649 225.006L93.7355 225.235L93.7931 225.387ZM93.5532 221.156C92.9174 221.365 92.2324 221.019 92.0231 220.383C91.9804 220.254 91.9378 220.124 91.8955 219.993C91.6885 219.357 92.0366 218.673 92.6732 218.466C93.3097 218.259 93.9936 218.607 94.2006 219.244C94.2421 219.371 94.2837 219.499 94.3256 219.626C94.5349 220.262 94.189 220.947 93.5532 221.156ZM90.471 215.307C90.6518 215.951 91.3209 216.327 91.9654 216.146C92.6098 215.966 92.9857 215.296 92.8049 214.652L92.7616 214.497L92.6981 214.269C92.5194 213.624 91.8517 213.246 91.2066 213.424C90.5615 213.603 90.1834 214.271 90.3621 214.916C90.3982 215.046 90.4345 215.177 90.471 215.307ZM90.6087 211.064C89.957 211.217 89.3049 210.812 89.1521 210.161L89.0988 209.932L89.0597 209.763C88.909 209.111 89.3156 208.46 89.9678 208.31C90.62 208.159 91.2709 208.566 91.4215 209.218L91.47 209.427L91.5121 209.608C91.6649 210.259 91.2604 210.911 90.6087 211.064ZM88.0437 204.962C88.1688 205.62 88.8033 206.051 89.4609 205.926C90.1185 205.801 90.5501 205.167 90.425 204.509C90.4002 204.379 90.3756 204.248 90.3511 204.118C90.2281 203.46 89.595 203.026 88.9371 203.149C88.2791 203.272 87.8454 203.905 87.9684 204.563C87.9933 204.696 88.0184 204.829 88.0437 204.962ZM88.5369 200.756C87.8747 200.853 87.2586 200.396 87.1607 199.734C87.1408 199.599 87.1211 199.464 87.1016 199.329C87.0058 198.667 87.4652 198.052 88.1277 197.956C88.7902 197.86 89.4049 198.32 89.5006 198.982L89.539 199.245L89.5587 199.379C89.6565 200.042 89.1991 200.658 88.5369 200.756ZM86.4967 194.472C86.5678 195.138 87.1649 195.62 87.8305 195.549C88.4961 195.478 88.978 194.88 88.907 194.215L88.889 194.046L88.8652 193.818C88.7961 193.152 88.2005 192.668 87.5347 192.737C86.8689 192.806 86.3851 193.402 86.4541 194.068C86.4681 194.202 86.4823 194.337 86.4967 194.472ZM87.329 190.324C86.6612 190.369 86.0835 189.863 86.0388 189.196C86.0298 189.061 86.0209 188.925 86.0123 188.79C85.9696 188.122 86.4765 187.546 87.1445 187.503C87.8124 187.461 88.3886 187.968 88.4313 188.636C88.4398 188.768 88.4485 188.901 88.4573 189.034C88.502 189.702 87.9969 190.279 87.329 190.324ZM85.7862 183.921C85.805 184.59 86.3627 185.117 87.0318 185.098C87.7009 185.079 88.2281 184.522 88.2093 183.852C88.2055 183.719 88.202 183.585 88.1986 183.451C88.1817 182.782 87.6257 182.253 86.9565 182.27C86.2873 182.287 85.7585 182.843 85.7754 183.512C85.7788 183.648 85.7824 183.785 85.7862 183.921ZM86.9394 179.845C86.27 179.838 85.7329 179.29 85.7396 178.621C85.741 178.485 85.7425 178.349 85.7443 178.213C85.753 177.544 86.3026 177.008 86.9719 177.017C87.6412 177.026 88.1768 177.575 88.1681 178.245L88.1655 178.454L88.1635 178.645C88.1567 179.315 87.6087 179.852 86.9394 179.845ZM85.8856 173.338C85.8537 174.006 86.3698 174.574 87.0384 174.606C87.707 174.638 88.2749 174.122 88.3068 173.453L88.3141 173.301L88.3264 173.053C88.3602 172.385 87.8457 171.815 87.1772 171.782C86.5087 171.748 85.9393 172.262 85.9055 172.931C85.8987 173.066 85.892 173.202 85.8856 173.338ZM87.3425 169.353C86.6756 169.296 86.1809 168.71 86.2376 168.043C86.2491 167.907 86.2608 167.772 86.2727 167.637C86.3313 166.97 86.9193 166.477 87.5861 166.536C88.2529 166.594 88.7459 167.182 88.6873 167.849C88.6757 167.982 88.6642 168.115 88.6529 168.248C88.5962 168.915 88.0095 169.41 87.3425 169.353ZM86.792 162.776C86.7108 163.44 87.1836 164.045 87.848 164.126C88.5124 164.207 89.1169 163.734 89.1981 163.07C89.2143 162.937 89.2306 162.805 89.2472 162.673C89.3302 162.008 88.8591 161.403 88.195 161.32C87.5308 161.237 86.925 161.708 86.842 162.372L86.8209 162.541L86.792 162.776ZM88.5288 158.925C87.8678 158.819 87.4174 158.198 87.5228 157.537L87.555 157.336L87.5874 157.135C87.6947 156.474 88.3172 156.026 88.9779 156.133C89.6386 156.24 90.0873 156.863 89.9801 157.523C89.9587 157.655 89.9375 157.787 89.9165 157.919C89.8111 158.58 89.1898 159.03 88.5288 158.925ZM88.456 152.314C88.3267 152.971 88.7543 153.608 89.411 153.737C90.0678 153.867 90.705 153.439 90.8343 152.782L90.8632 152.636L90.9122 152.39C91.0433 151.734 90.6175 151.095 89.9611 150.964C89.3047 150.833 88.6663 151.259 88.5352 151.915C88.5086 152.048 88.4822 152.181 88.456 152.314ZM90.4744 148.592C89.8227 148.439 89.4185 147.787 89.5714 147.135C89.6024 147.003 89.6336 146.871 89.665 146.739C89.8197 146.088 90.4731 145.685 91.1244 145.84C91.7756 145.995 92.178 146.648 92.0233 147.3C91.9924 147.429 91.9618 147.559 91.9313 147.689C91.7783 148.341 91.126 148.745 90.4744 148.592ZM90.883 141.996C90.7066 142.642 91.0871 143.308 91.7328 143.485C92.3785 143.661 93.0449 143.281 93.2213 142.635C93.2565 142.506 93.2918 142.377 93.3274 142.249C93.5055 141.603 93.1269 140.936 92.4817 140.758C91.8364 140.58 91.169 140.958 90.9908 141.603C90.9547 141.734 90.9187 141.865 90.883 141.996ZM93.1605 138.423C92.5216 138.224 92.1655 137.544 92.3651 136.905C92.4056 136.775 92.4462 136.646 92.4871 136.516C92.6885 135.878 93.3692 135.524 94.0076 135.725C94.6459 135.926 95.0002 136.607 94.7988 137.245C94.7677 137.344 94.7366 137.443 94.7057 137.542L94.6788 137.628C94.4792 138.267 93.7995 138.623 93.1605 138.423Z"
      fill="#CFDDFF"
    />
    <path
      fill-rule="evenodd"
      clip-rule="evenodd"
      d="M154.54 400.774L153.672 409.127L165.824 412.451C168.865 413.283 168.263 417.761 165.111 417.761L141.934 417.761L142.551 400.545L154.54 400.774Z"
      fill="#19243D"
    />
    <path
      fill-rule="evenodd"
      clip-rule="evenodd"
      d="M184.523 262.957C186.896 266.657 188.336 270.877 188.722 275.255L199.777 400.777H198.219L199.777 409.152L208.021 411.271C211.631 412.199 210.928 417.519 207.202 417.478L189.001 417.278L186.261 400.777L184.523 400.796L162.616 262.957H184.523Z"
      fill="#19243D"
    />
    <path
      fill-rule="evenodd"
      clip-rule="evenodd"
      d="M146.056 262.976L143.322 271.694C140.806 279.719 140.586 288.287 142.688 296.43L143.065 297.894L139.472 400.777H157.305L175.613 262.078L146.056 262.976Z"
      fill="#3ECE8D"
    />
    <path
      d="M153.236 262.957L153.72 262.995L142.936 400.796L142.453 400.758L153.236 262.957Z"
      fill="#19243D"
    />
    <path
      fill-rule="evenodd"
      clip-rule="evenodd"
      d="M191.1 242.495L195.112 250.514C197.117 254.522 201.215 257.054 205.698 257.054C209.4 257.054 212.889 255.322 215.127 252.373L232.049 230.075L225.918 226.822L205.776 242.495L203.592 236.026L191.1 242.495Z"
      fill="#E7D2BF"
    />
    <path
      fill-rule="evenodd"
      clip-rule="evenodd"
      d="M155.626 205.337C140.38 206.792 130.921 222.62 136.862 236.736L139.538 243.097L140.689 252.457C141.18 256.458 143.01 260.176 145.88 263.006H184.393C186.607 259.036 187.695 254.537 187.541 249.994L187.036 235.176L191.254 244.313L204.505 237.799C199.35 218.615 181.944 205.293 162.081 205.326L155.626 205.337Z"
      fill="#2760CB"
    />
    <path
      fill-rule="evenodd"
      clip-rule="evenodd"
      d="M155.626 205.337C140.38 206.792 130.921 222.62 136.862 236.736L139.538 243.097L140.689 252.457C141.18 256.458 143.01 260.176 145.88 263.006H184.393C186.607 259.036 187.695 254.537 187.541 249.994L187.036 235.176L191.254 244.313L204.505 237.799C199.35 218.615 181.944 205.293 162.081 205.326L155.626 205.337Z"
      fill="#4F75FF"
    />
    <mask
      id="mask0"
      mask-type="alpha"
      maskUnits="userSpaceOnUse"
      x="135"
      y="205"
      width="70"
      height="59"
    >
      <path
        fill-rule="evenodd"
        clip-rule="evenodd"
        d="M155.626 205.337C140.38 206.792 130.921 222.62 136.862 236.736L139.538 243.097L140.689 252.457C141.18 256.458 143.01 260.176 145.88 263.006H184.393C186.607 259.036 187.695 254.537 187.541 249.994L187.036 235.176L191.254 244.313L204.505 237.799C199.35 218.615 181.944 205.293 162.081 205.326L155.626 205.337Z"
        fill="white"
      />
    </mask>
    <g mask="url(#mask0)">
      <path
        d="M150.19 184.457C150.19 184.457 149.86 242.628 146.768 279.747"
        stroke="white"
        stroke-width="0.450459"
      />
      <path
        d="M142.903 183.855C142.903 183.855 142.573 242.026 139.481 279.146"
        stroke="white"
        stroke-width="0.450459"
      />
      <path
        d="M135.604 183.248C135.604 183.248 135.273 241.419 132.182 278.538"
        stroke="white"
        stroke-width="0.450459"
      />
      <path
        d="M157.485 185.074C157.485 185.074 157.155 243.245 154.063 280.365"
        stroke="white"
        stroke-width="0.450459"
      />
      <path
        d="M164.775 185.678C164.775 185.678 164.445 243.848 161.353 280.968"
        stroke="white"
        stroke-width="0.450459"
      />
      <path
        d="M172.076 186.283C172.076 186.283 171.745 244.454 168.653 281.574"
        stroke="white"
        stroke-width="0.450459"
      />
      <path
        d="M179.375 186.891C179.375 186.891 179.045 245.061 175.953 282.181"
        stroke="white"
        stroke-width="0.450459"
      />
      <path
        d="M186.667 187.5C186.667 187.5 186.336 245.671 183.245 282.79"
        stroke="white"
        stroke-width="0.450459"
      />
      <path
        d="M193.957 188.107C193.957 188.107 193.626 246.278 190.535 283.398"
        stroke="white"
        stroke-width="0.450459"
      />
      <path
        d="M201.251 188.717C201.251 188.717 200.92 246.887 197.829 284.007"
        stroke="white"
        stroke-width="0.450459"
      />
      <path
        d="M208.544 189.32C208.544 189.32 208.214 247.491 205.122 284.611"
        stroke="white"
        stroke-width="0.450459"
      />
    </g>
    <path
      fill-rule="evenodd"
      clip-rule="evenodd"
      d="M210.486 214.84C210.667 212.996 212.218 211.59 214.072 211.59H227.213C229.343 211.59 231.008 213.427 230.799 215.547L228.456 239.308H208.073L210.486 214.84Z"
      fill="#19243D"
    />
    <path
      fill-rule="evenodd"
      clip-rule="evenodd"
      d="M221.118 217.912C221.855 217.912 222.453 217.313 222.453 216.575C222.453 215.837 221.855 215.238 221.118 215.238C220.382 215.238 219.784 215.837 219.784 216.575C219.784 217.313 220.382 217.912 221.118 217.912Z"
      fill="white"
    />
    <path
      fill-rule="evenodd"
      clip-rule="evenodd"
      d="M227.963 232.321C227.963 232.321 231.194 231.43 231.997 230.075C232.653 228.97 231.643 224.159 231.249 222.429C231.162 222.045 230.864 221.747 230.482 221.652L224.764 220.223C224.36 220.122 223.952 220.368 223.851 220.771C223.763 221.128 223.943 221.496 224.279 221.643C225.617 222.227 228.771 223.612 228.422 223.524C228.092 223.442 224.956 223.176 223.401 223.048C222.901 223.006 222.446 223.334 222.325 223.82C222.189 224.369 222.523 224.924 223.071 225.061L227.749 226.23L224.283 226.884C223.72 226.99 223.371 227.561 223.535 228.111C223.645 228.481 223.964 228.75 224.347 228.796L229.219 229.381L225.507 230.808C225.097 230.966 224.876 231.412 224.999 231.834C225.109 232.212 225.465 232.464 225.858 232.442C226.68 232.394 227.963 232.321 227.963 232.321Z"
      fill="#E6D2BF"
    />
    <path
      fill-rule="evenodd"
      clip-rule="evenodd"
      d="M142.939 242.492L155.437 234.202L159.067 238.581L190.811 222.569C191.341 222.301 191.897 222.09 192.47 221.939L202.018 219.421C202.581 219.273 203.132 219.698 203.132 220.28C203.132 220.617 202.942 220.924 202.641 221.075L197.769 223.504V226.119C197.769 228.292 196.486 230.259 194.498 231.136L193.736 231.473C192.419 232.054 190.891 231.89 189.728 231.042L169.634 250.622C167.543 252.659 164.842 253.955 161.945 254.312C157.84 254.817 153.733 253.392 150.823 250.454L142.939 242.492Z"
      fill="#E7D2BF"
    />
    <path
      fill-rule="evenodd"
      clip-rule="evenodd"
      d="M176.639 181.802L176.314 194.784C176.235 197.968 173.632 200.507 170.447 200.507V205.009C170.447 205.009 174.028 211.375 169.678 213.169C165.327 214.963 159.078 206.42 159.078 206.42L160.779 183.752L169.678 179.184L176.639 181.802Z"
      fill="#E7D2BF"
    />
    <path
      fill-rule="evenodd"
      clip-rule="evenodd"
      d="M174.193 193.829L171.472 193.309C171.472 193.309 171.905 195.056 172.858 195.039C173.811 195.022 174.193 193.829 174.193 193.829Z"
      fill="white"
    />
    <path
      d="M174.924 187.426C174.914 187.319 174.992 187.224 175.099 187.214C175.205 187.204 175.3 187.282 175.31 187.39L175.739 191.977H173.995C173.888 191.977 173.801 191.89 173.801 191.782C173.801 191.674 173.888 191.587 173.995 191.587H175.314L174.924 187.426Z"
      fill="#19243D"
    />
    <path
      fill-rule="evenodd"
      clip-rule="evenodd"
      d="M171.559 184.973C171.568 184.704 171.794 184.494 172.063 184.503L173.412 184.551C173.681 184.56 173.891 184.786 173.882 185.055C173.872 185.324 173.647 185.534 173.378 185.525L172.029 185.477C171.76 185.468 171.55 185.242 171.559 184.973Z"
      fill="#19243D"
    />
    <path
      fill-rule="evenodd"
      clip-rule="evenodd"
      d="M175.236 185.167C175.245 184.898 175.471 184.687 175.74 184.697L177.089 184.744C177.358 184.754 177.568 184.979 177.559 185.248C177.549 185.517 177.323 185.728 177.054 185.718L175.706 185.671C175.437 185.661 175.227 185.436 175.236 185.167Z"
      fill="#19243D"
    />
    <path
      d="M164.992 186.234C164.992 186.234 164.154 186.546 164.741 187.759"
      stroke="#19243D"
      stroke-width="0.720734"
      stroke-linecap="round"
    />
    <path
      fill-rule="evenodd"
      clip-rule="evenodd"
      d="M168.467 186.632C168.467 188.247 169.768 189.557 171.373 189.557C172.978 189.557 174.279 188.247 174.279 186.632C174.279 185.017 172.978 183.707 171.373 183.707C169.768 183.707 168.467 185.017 168.467 186.632ZM173.892 186.629C173.892 188.029 172.764 189.164 171.373 189.164C169.982 189.164 168.855 188.029 168.855 186.629C168.855 185.229 169.982 184.094 171.373 184.094C172.764 184.094 173.892 185.229 173.892 186.629Z"
      fill="white"
    />
    <path
      fill-rule="evenodd"
      clip-rule="evenodd"
      d="M175.349 186.829C175.349 188.444 176.65 189.754 178.255 189.754C179.86 189.754 181.161 188.444 181.161 186.829C181.161 185.214 179.86 183.904 178.255 183.904C176.65 183.904 175.349 185.214 175.349 186.829ZM180.767 186.827C180.767 188.227 179.639 189.362 178.248 189.362C176.857 189.362 175.73 188.227 175.73 186.827C175.73 185.428 176.857 184.293 178.248 184.293C179.639 184.293 180.767 185.428 180.767 186.827Z"
      fill="white"
    />
    <path
      d="M176.355 189.043C176.274 188.973 176.265 188.85 176.335 188.768C176.405 188.687 176.527 188.677 176.608 188.748C177.062 189.14 177.639 189.36 178.25 189.36C179.641 189.36 180.768 188.225 180.768 186.825C180.768 185.425 179.641 184.29 178.25 184.29C178.142 184.29 178.036 184.297 177.931 184.31C177.825 184.324 177.728 184.248 177.714 184.141C177.701 184.035 177.776 183.937 177.882 183.924C178.003 183.908 178.126 183.9 178.25 183.9C179.855 183.9 181.156 185.21 181.156 186.825C181.156 188.44 179.855 189.75 178.25 189.75C177.545 189.75 176.879 189.496 176.355 189.043Z"
      fill="#19243D"
    />
    <path
      fill-rule="evenodd"
      clip-rule="evenodd"
      d="M176.385 187.018C176.599 187.018 176.773 186.843 176.773 186.628C176.773 186.413 176.599 186.238 176.385 186.238C176.171 186.238 175.998 186.413 175.998 186.628C175.998 186.843 176.171 187.018 176.385 187.018Z"
      fill="#19243D"
    />
    <path
      fill-rule="evenodd"
      clip-rule="evenodd"
      d="M172.361 187.018C172.575 187.018 172.748 186.843 172.748 186.628C172.748 186.413 172.575 186.238 172.361 186.238C172.147 186.238 171.974 186.413 171.974 186.628C171.974 186.843 172.147 187.018 172.361 187.018Z"
      fill="#19243D"
    />
    <path
      fill-rule="evenodd"
      clip-rule="evenodd"
      d="M159.974 195.175L164.511 188.755L163.476 187.6C162.983 187.05 162.92 186.238 163.321 185.618C163.746 184.961 164.577 184.696 165.304 184.987L165.556 185.088C166.021 185.274 166.357 185.687 166.445 186.18L166.763 187.964C166.816 188.262 167.075 188.479 167.377 188.479C167.706 188.479 167.979 188.224 168.008 187.897C168.098 186.876 168.322 184.839 168.703 184.487C169.215 184.013 170.469 184.37 170.714 181.146C172.414 182.244 176.633 181.803 176.633 181.803L176.521 185.565C176.521 185.565 179.638 182.529 179.638 179.667C179.638 176.805 177.137 177.727 177.137 177.727C177.137 177.727 178.201 172.407 174.679 173.303C171.156 174.199 164.882 172.84 160.773 177.727C156.023 178.994 156.828 181.363 157.32 183.782C157.812 186.201 159.974 195.175 159.974 195.175Z"
      fill="#19243D"
    />
    <path
      d="M16.5623 40.8838V44.0835C7.72639 44.0835 0.563477 51.2465 0.563477 60.0824H189.349C189.349 51.2465 182.186 44.0835 173.351 44.0835H149.672C149.672 35.9545 143.082 29.3646 134.953 29.3646H83.1173C83.1173 19.8219 75.3814 12.0859 65.8386 12.0859H45.3601C35.8174 12.0859 28.0814 19.8219 28.0814 29.3646C21.7196 29.3646 16.5623 34.5219 16.5623 40.8838Z"
      fill="#EEF3FF"
    />
    <path
      d="M1179.27 19.8622V21.9762C1173.43 21.9762 1168.7 26.7087 1168.7 32.5464H1293.43C1293.43 26.7087 1288.69 21.9762 1282.86 21.9762H1267.21C1267.21 16.6055 1262.86 12.2517 1257.49 12.2517H1223.24C1223.24 5.94695 1218.13 0.835938 1211.82 0.835938H1198.29C1191.99 0.835938 1186.88 5.94695 1186.88 12.2517C1182.68 12.2517 1179.27 15.659 1179.27 19.8622Z"
      fill="#EEF3FF"
    />
    <path
      fill-rule="evenodd"
      clip-rule="evenodd"
      d="M1236.64 397.145C1236.64 397.145 1238.27 400.476 1237.73 406.269C1237.18 412.063 1236.64 417.508 1236.64 417.508H1234.36V410.426C1234.36 410.426 1229.76 417.508 1227.57 417.508C1226.2 417.508 1223.27 417.508 1221.26 417.508C1220.11 417.508 1219.18 416.573 1219.18 415.421C1219.18 414.972 1219.32 414.535 1219.59 414.174L1226.33 405.12L1236.64 397.145Z"
      fill="#19243D"
    />
    <path
      fill-rule="evenodd"
      clip-rule="evenodd"
      d="M1226.12 393.176C1224.7 405.174 1223.05 410.739 1221.07 412.312C1219.09 413.886 1225.17 415.481 1228.5 411.113C1231.82 406.745 1237.24 402.078 1237.24 395.559C1237.24 389.039 1241.57 373.447 1243.52 363.712C1245.48 353.977 1243.52 324.863 1243.52 324.863H1231.39C1231.39 324.863 1227.53 381.178 1226.12 393.176Z"
      fill="#A28978"
    />
    <path
      fill-rule="evenodd"
      clip-rule="evenodd"
      d="M1266.87 397.145C1266.87 397.145 1268.5 400.476 1267.96 406.269C1267.41 412.063 1266.87 417.508 1266.87 417.508H1264.59V410.426C1264.59 410.426 1259.99 417.508 1257.8 417.508C1256.43 417.508 1253.5 417.508 1251.49 417.508C1250.34 417.508 1249.4 416.573 1249.4 415.421C1249.4 414.972 1249.55 414.535 1249.82 414.174L1256.56 405.12L1266.87 397.145Z"
      fill="#19243D"
    />
    <path
      fill-rule="evenodd"
      clip-rule="evenodd"
      d="M1256.34 393.176C1254.93 405.174 1253.27 410.739 1251.29 412.312C1249.32 413.886 1255.4 415.481 1258.72 411.113C1262.04 406.745 1267.46 402.078 1267.46 395.559C1267.46 389.039 1268.83 373.941 1270.78 364.206C1272.73 354.471 1267.89 324.863 1267.89 324.863H1253.38C1253.38 324.863 1257.76 381.178 1256.34 393.176Z"
      fill="#A28978"
    />
    <path
      fill-rule="evenodd"
      clip-rule="evenodd"
      d="M1266.73 263.659L1269.14 271.498C1271.25 278.385 1271.74 285.67 1270.57 292.779L1269.54 298.975L1275.73 343.825H1226.92L1228.44 281.785C1228.58 275.823 1229.87 269.944 1232.24 264.469L1233.16 262.336L1266.73 263.659Z"
      fill="#3ECE8D"
    />
    <path
      d="M1262.9 263.66L1264.43 276.265C1265.01 281.023 1264.95 285.837 1264.24 290.577V290.577C1263.36 296.515 1263.48 302.56 1264.6 308.457L1271.35 343.826"
      stroke="#19243D"
      stroke-width="0.61583"
    />
    <path
      fill-rule="evenodd"
      clip-rule="evenodd"
      d="M1216 210.129C1216 210.129 1206.85 182.022 1205.9 179.075C1204.95 176.128 1202.35 172.261 1201.17 170.708C1200.28 169.54 1199.35 170.126 1200.19 172.754C1200.47 173.618 1201.39 175.812 1201.97 176.77C1199.31 176.252 1199.46 177.887 1199.46 177.887C1199.46 177.887 1196.74 177.589 1196.74 179.075C1195.25 178.986 1194.96 180.378 1194.96 181.079C1194.96 181.781 1194.22 184.841 1194.96 184.841C1195.7 184.841 1196.37 183.172 1196.37 183.172C1196.37 183.172 1198.08 187.457 1200.19 187.011C1200.43 190.655 1202.05 199.747 1203.51 207.415C1204.95 215.067 1210.27 221.391 1217.52 224.247L1218.76 224.735L1216 210.129Z"
      fill="#A28978"
    />
    <path
      d="M1202.06 185.964C1202.08 186.088 1202.19 186.176 1202.32 186.16C1202.44 186.145 1202.53 186.032 1202.51 185.908C1202.34 184.529 1202.9 183.367 1204.23 182.396L1204.41 182.264L1204.28 182.083C1203.64 181.174 1202.79 180.82 1201.78 181.045L1201.75 181.052L1201.72 181.068C1200.23 181.903 1199.1 182.079 1198.32 181.632C1198.13 181.527 1198.03 181.434 1197.99 181.361C1197.94 181.246 1198.12 181.04 1198.69 180.693C1199.02 180.495 1200.79 179.545 1201.27 179.272C1202.91 178.341 1204.4 178.341 1205.78 179.264C1205.88 179.333 1206.02 179.305 1206.09 179.201C1206.16 179.098 1206.13 178.957 1206.03 178.888C1204.5 177.867 1202.83 177.867 1201.05 178.879C1200.58 179.147 1198.79 180.101 1198.46 180.307C1197.68 180.774 1197.38 181.125 1197.58 181.556C1197.67 181.728 1197.84 181.878 1198.09 182.025C1199.04 182.562 1200.32 182.369 1201.91 181.479C1202.66 181.323 1203.27 181.547 1203.78 182.17C1202.46 183.209 1201.88 184.481 1202.06 185.964Z"
      fill="white"
    />
    <path
      d="M1200.57 184.085C1201.06 183.969 1201.44 183.565 1201.52 183.061L1201.77 181.555C1201.79 181.431 1201.71 181.315 1201.59 181.295C1201.46 181.274 1201.35 181.358 1201.33 181.481L1201.08 182.987C1201.02 183.311 1200.78 183.571 1200.46 183.645C1200.21 183.705 1199.95 183.55 1199.89 183.296L1199.57 182.067C1199.51 181.822 1199.16 181.849 1199.13 182.101L1198.99 183.567C1198.96 183.881 1198.72 184.134 1198.41 184.187C1198.14 184.233 1197.88 184.058 1197.81 183.789L1196.71 178.972C1196.68 178.851 1196.56 178.775 1196.44 178.803C1196.32 178.831 1196.24 178.952 1196.27 179.073L1197.37 183.89C1197.49 184.392 1197.98 184.718 1198.48 184.632C1198.99 184.546 1199.38 184.128 1199.44 183.612L1199.45 183.421C1199.58 183.905 1200.08 184.2 1200.57 184.085Z"
      fill="white"
    />
    <path
      d="M1199.16 179.801C1199.17 179.925 1199.28 180.018 1199.4 180.009C1199.53 179.999 1199.62 179.89 1199.61 179.766L1199.46 177.863C1199.45 177.738 1199.34 177.645 1199.22 177.655C1199.09 177.665 1199 177.773 1199.01 177.898L1199.16 179.801Z"
      fill="white"
    />
    <path
      d="M1201.92 177.562C1201.97 177.679 1202.1 177.738 1202.21 177.693C1202.33 177.649 1202.39 177.518 1202.34 177.402L1202.03 176.591C1201.99 176.474 1201.86 176.416 1201.74 176.46C1201.63 176.505 1201.57 176.635 1201.61 176.752L1201.92 177.562Z"
      fill="white"
    />
    <path
      fill-rule="evenodd"
      clip-rule="evenodd"
      d="M1258.87 214.473L1264.99 215.708C1272.89 217.302 1279.25 223.163 1281.48 230.91L1286.5 248.325L1271.54 249.551L1269.48 242.215L1266.45 250.444C1266.17 251.187 1266.06 251.981 1266.12 252.77L1266.95 263.988L1233.4 262.665L1235.08 247.339C1230.77 246.207 1228.44 241.537 1230.14 237.416L1233.4 229.477L1216 224.737V210.07L1258.87 214.473Z"
      fill="#2760CB"
    />
    <path
      fill-rule="evenodd"
      clip-rule="evenodd"
      d="M1258.87 214.473L1264.99 215.708C1272.89 217.302 1279.25 223.163 1281.48 230.91L1286.5 248.325L1271.54 249.551L1269.48 242.215L1266.45 250.444C1266.17 251.187 1266.06 251.981 1266.12 252.77L1266.95 263.988L1233.4 262.665L1235.08 247.339C1230.77 246.207 1228.44 241.537 1230.14 237.416L1233.4 229.477L1216 224.737V210.07L1258.87 214.473Z"
      fill="#4F75FF"
    />
    <mask
      id="mask1"
      mask-type="alpha"
      maskUnits="userSpaceOnUse"
      x="1216"
      y="210"
      width="71"
      height="54"
    >
      <path
        fill-rule="evenodd"
        clip-rule="evenodd"
        d="M1258.87 214.473L1264.99 215.708C1272.89 217.302 1279.25 223.163 1281.48 230.91L1286.5 248.325L1271.54 249.551L1269.48 242.215L1266.45 250.444C1266.17 251.187 1266.06 251.981 1266.12 252.77L1266.95 263.988L1233.4 262.665L1235.08 247.339C1230.77 246.207 1228.44 241.537 1230.14 237.416L1233.4 229.477L1216 224.737V210.07L1258.87 214.473Z"
        fill="white"
      />
    </mask>
    <g mask="url(#mask1)">
      <path
        d="M1280.81 209.609V265.373"
        stroke="white"
        stroke-width="0.61583"
      />
      <path
        d="M1270.79 209.609V265.373"
        stroke="white"
        stroke-width="0.61583"
      />
      <path
        d="M1260.76 209.609V265.373"
        stroke="white"
        stroke-width="0.61583"
      />
      <path
        d="M1250.73 209.609V265.373"
        stroke="white"
        stroke-width="0.61583"
      />
      <path
        d="M1240.69 209.609V265.373"
        stroke="white"
        stroke-width="0.61583"
      />
      <path
        d="M1230.67 209.609V265.373"
        stroke="white"
        stroke-width="0.61583"
      />
      <path
        d="M1220.64 209.609V265.373"
        stroke="white"
        stroke-width="0.61583"
      />
    </g>
    <path
      d="M1243.83 230.617C1243.83 229.152 1242.64 227.965 1241.18 227.965H1232.02C1230.55 227.965 1229.37 229.152 1229.37 230.617V250.933H1243.83V230.617Z"
      fill="#19243D"
    />
    <path
      fill-rule="evenodd"
      clip-rule="evenodd"
      d="M1272.48 249.482L1272.83 251.239L1247.64 241.484L1244.06 237.425V239.387L1236.77 234.822C1236.4 234.596 1235.93 234.71 1235.71 235.076C1235.52 235.39 1235.58 235.794 1235.85 236.039L1240.37 240.122L1233.95 238.084C1233.51 237.945 1233.03 238.15 1232.83 238.567C1232.61 239.022 1232.8 239.569 1233.25 239.796L1238.95 242.669L1233.59 241.629C1233.12 241.538 1232.66 241.846 1232.57 242.318C1232.49 242.732 1232.72 243.143 1233.12 243.293L1238.63 245.392L1234.41 245.028C1233.95 244.987 1233.55 245.353 1233.55 245.819C1233.55 246.183 1233.8 246.501 1234.15 246.59L1241.72 248.497C1242.97 248.812 1244.27 248.901 1245.55 248.76L1245.88 248.724L1269.69 266.307C1272.76 268.573 1276.82 268.971 1280.27 267.343C1284.4 265.396 1286.76 260.981 1286.1 256.468L1284.94 248.475L1272.48 249.482Z"
      fill="#A28978"
    />
    <path
      fill-rule="evenodd"
      clip-rule="evenodd"
      d="M1239.13 193.688V212.843L1248.66 213.731L1247.96 195.528L1239.13 193.688Z"
      fill="#19243D"
    />
    <path
      fill-rule="evenodd"
      clip-rule="evenodd"
      d="M1240.13 192.59L1240.43 204.415C1240.51 207.415 1242.97 209.807 1245.97 209.807V213.951C1245.97 213.951 1242.59 219.81 1246.69 221.461C1250.79 223.112 1256.68 215.249 1256.68 215.249L1253.09 194.339L1246.69 190.18L1240.13 192.59Z"
      fill="#A28978"
    />
    <path
      d="M1251.2 196.189C1251.2 196.189 1252.07 196.869 1251.2 197.693"
      stroke="#19243D"
      stroke-width="0.61583"
      stroke-linecap="round"
    />
    <path
      fill-rule="evenodd"
      clip-rule="evenodd"
      d="M1242.35 203.553L1244.88 203.076C1244.88 203.076 1244.48 204.679 1243.59 204.663C1242.71 204.648 1242.35 203.553 1242.35 203.553Z"
      fill="white"
    />
    <path
      d="M1241.48 197.389C1241.49 197.288 1241.41 197.198 1241.3 197.188C1241.19 197.179 1241.09 197.253 1241.08 197.355L1240.63 201.697H1242.44C1242.55 201.697 1242.64 201.615 1242.64 201.513C1242.64 201.411 1242.55 201.328 1242.44 201.328H1241.07L1241.48 197.389Z"
      fill="#19243D"
    />
    <path
      fill-rule="evenodd"
      clip-rule="evenodd"
      d="M1244.8 195.435C1244.8 195.189 1244.59 194.996 1244.34 195.004L1243.07 195.048C1242.83 195.057 1242.63 195.264 1242.64 195.511C1242.65 195.757 1242.86 195.95 1243.11 195.942L1244.37 195.898C1244.62 195.889 1244.81 195.682 1244.8 195.435Z"
      fill="#19243D"
    />
    <path
      fill-rule="evenodd"
      clip-rule="evenodd"
      d="M1241.38 195.611C1241.37 195.364 1241.17 195.171 1240.92 195.18L1239.65 195.224C1239.41 195.232 1239.21 195.44 1239.22 195.686C1239.23 195.933 1239.44 196.126 1239.68 196.117L1240.95 196.073C1241.2 196.065 1241.39 195.858 1241.38 195.611Z"
      fill="#19243D"
    />
    <path
      fill-rule="evenodd"
      clip-rule="evenodd"
      d="M1240.13 197.694C1239.86 197.694 1239.63 197.469 1239.63 197.192C1239.63 196.916 1239.86 196.691 1240.13 196.691C1240.41 196.691 1240.64 196.916 1240.64 197.192C1240.64 197.469 1240.41 197.694 1240.13 197.694Z"
      fill="#19243D"
    />
    <path
      fill-rule="evenodd"
      clip-rule="evenodd"
      d="M1243.64 197.694C1243.37 197.694 1243.14 197.469 1243.14 197.192C1243.14 196.916 1243.37 196.691 1243.64 196.691C1243.92 196.691 1244.14 196.916 1244.14 197.192C1244.14 197.469 1243.92 197.694 1243.64 197.694Z"
      fill="#19243D"
    />
    <path
      fill-rule="evenodd"
      clip-rule="evenodd"
      d="M1251.88 213.808C1251.88 213.808 1251.13 205.804 1250.88 203.725C1250.64 201.647 1251.46 198.744 1251.46 198.744L1252.39 197.712C1252.87 197.187 1252.93 196.408 1252.54 195.816C1252.15 195.223 1251.42 194.965 1250.74 195.188L1249.21 195.698C1248.69 195.87 1248.13 195.927 1247.6 195.808C1246.11 195.478 1242.97 194.525 1241.51 192.157C1241.13 193.149 1240.19 193.762 1240.19 193.762L1240.3 195.804C1240.3 195.804 1237.36 193.665 1237.36 191.027C1237.36 188.389 1240.19 187.814 1240.19 187.814C1240.19 187.814 1240.14 185.349 1242.83 184.854C1245.24 184.41 1251.36 182.412 1257.18 188.213C1260.92 191.933 1267.44 216.258 1267.44 216.258L1263.04 215.406C1263.04 215.406 1263.16 220.741 1258.01 220.741C1252.85 220.741 1251.88 213.808 1251.88 213.808Z"
      fill="#19243D"
    />
  </svg>
